<?xml version="1.0" standalone="no"?>
<!DOCTYPE svg PUBLIC "-//W3C//DTD SVG 20010904//EN"
 "http://www.w3.org/TR/2001/REC-SVG-20010904/DTD/svg10.dtd">
<svg version="1.0" xmlns="http://www.w3.org/2000/svg"
 width="300.000000pt" height="300.000000pt" viewBox="0 0 300.000000 300.000000"
 preserveAspectRatio="xMidYMid meet">
<metadata>
Created by potrace 1.14, written by Peter Selinger 2001-2017
</metadata>
<g transform="translate(0.000000,300.000000) scale(0.100000,-0.100000)"
fill="#000000" stroke="none">
<path d="M1095 2490 c-203 -87 -376 -162 -383 -167 -9 -5 111 -74 362 -206
206 -109 384 -201 395 -204 22 -6 824 398 813 409 -11 10 -791 328 -805 328
-7 -1 -178 -72 -382 -160z"/>
<path d="M820 1132 c0 -583 3 -752 13 -765 28 -38 166 -39 207 -2 19 17 20 32
20 367 l0 348 420 0 420 0 0 -345 0 -346 25 -24 c22 -22 40 -27 100 -27 60 0
78 5 100 27 l25 24 0 746 c0 445 -4 745 -9 745 -5 0 -61 -27 -125 -61 l-116
-60 -2 -222 -3 -222 -403 -2 c-222 -1 -410 1 -418 4 -11 4 -14 43 -14 222 l0
218 -27 14 c-15 8 -67 35 -115 62 -48 26 -89 47 -92 47 -3 0 -6 -337 -6 -748z"/>
</g>
</svg>
